<?xml version="1.0" encoding="UTF-8"?>
<!DOCTYPE svg PUBLIC "-//W3C//DTD SVG 1.1//EN" "http://www.w3.org/Graphics/SVG/1.1/DTD/svg11.dtd">
<svg version="1.1" xmlns="http://www.w3.org/2000/svg" xmlns:xlink="http://www.w3.org/1999/xlink" x="0" y="0" width="944" height="704" viewBox="0, 0, 944, 704">
  <g id="Background">
    <rect x="0" y="0" width="944" height="704" fill="#FFFFFF"/>
  </g>
  <defs>
    <linearGradient id="Gradient_1" gradientUnits="userSpaceOnUse" x1="396.662" y1="104.346" x2="429.583" y2="162.403" gradientTransform="matrix(1.067, 0, 0, 0.988, -8.611, -4.958)">
      <stop offset="0" stop-color="#F0F0EF"/>
      <stop offset="0.599" stop-color="#E8E8E8"/>
      <stop offset="0.828" stop-color="#FFFFFF"/>
      <stop offset="1" stop-color="#D8D8D3"/>
    </linearGradient>
    <linearGradient id="Gradient_2" gradientUnits="userSpaceOnUse" x1="414.262" y1="120.938" x2="447.183" y2="178.995" gradientTransform="matrix(1.067, 0, 0, 0.989, 4.392, 4.035)">
      <stop offset="0" stop-color="#F0F0EF"/>
      <stop offset="0.599" stop-color="#E8E8E8"/>
      <stop offset="0.828" stop-color="#FFFFFF"/>
      <stop offset="1" stop-color="#D8D8D3"/>
    </linearGradient>
    <linearGradient id="Gradient_3" gradientUnits="userSpaceOnUse" x1="474.442" y1="180.989" x2="468.746" y2="173.38" gradientTransform="matrix(1, 0, 0, 1, 6.162, 4.033)">
      <stop offset="0" stop-color="#7C7C7C"/>
      <stop offset="1" stop-color="#B8B8B8"/>
    </linearGradient>
    <linearGradient id="Gradient_4" gradientUnits="userSpaceOnUse" x1="433.147" y1="375.502" x2="463.833" y2="425.669" gradientTransform="matrix(1.067, 0, 0, 0.988, -8.611, -4.958)">
      <stop offset="0" stop-color="#F0EFF1"/>
      <stop offset="0.599" stop-color="#E8E6EA"/>
      <stop offset="0.828" stop-color="#FFFFFF"/>
      <stop offset="1" stop-color="#D6D3DA"/>
    </linearGradient>
    <linearGradient id="Gradient_5" gradientUnits="userSpaceOnUse" x1="228.151" y1="202.464" x2="275.734" y2="284.754" gradientTransform="matrix(1.067, 0, 0, 0.989, 5.138, 4.02)">
      <stop offset="0" stop-color="#F0EFF1"/>
      <stop offset="0.599" stop-color="#E8E6EA"/>
      <stop offset="0.828" stop-color="#FFFFFF"/>
      <stop offset="1" stop-color="#D6D3DA"/>
    </linearGradient>
    <linearGradient id="Gradient_6" gradientUnits="userSpaceOnUse" x1="291.003" y1="287.247" x2="282.771" y2="276.462" gradientTransform="matrix(1, 0, 0, 1, 6.908, 4.018)">
      <stop offset="0" stop-color="#7A7187"/>
      <stop offset="1" stop-color="#B7B2BE"/>
    </linearGradient>
    <linearGradient id="Gradient_7" gradientUnits="userSpaceOnUse" x1="585.784" y1="250.58" x2="616.47" y2="300.747" gradientTransform="matrix(1.067, 0, 0, 0.988, -8.611, -4.958)">
      <stop offset="0" stop-color="#F0EFF1"/>
      <stop offset="0.599" stop-color="#E8E6EA"/>
      <stop offset="0.828" stop-color="#FFFFFF"/>
      <stop offset="1" stop-color="#D6D3DA"/>
    </linearGradient>
    <linearGradient id="Gradient_8" gradientUnits="userSpaceOnUse" x1="634.037" y1="399.719" x2="664.722" y2="449.885" gradientTransform="matrix(1.067, 0, 0, 0.988, -8.611, -4.958)">
      <stop offset="0" stop-color="#F0EFF1"/>
      <stop offset="0.599" stop-color="#E8E6EA"/>
      <stop offset="0.828" stop-color="#FFFFFF"/>
      <stop offset="1" stop-color="#D6D3DA"/>
    </linearGradient>
    <linearGradient id="Gradient_9" gradientUnits="userSpaceOnUse" x1="280.811" y1="475.614" x2="311.496" y2="525.781" gradientTransform="matrix(1.067, 0, 0, 0.988, -8.611, -4.958)">
      <stop offset="0" stop-color="#F0EFF1"/>
      <stop offset="0.599" stop-color="#E8E6EA"/>
      <stop offset="0.828" stop-color="#FFFFFF"/>
      <stop offset="1" stop-color="#D6D3DA"/>
    </linearGradient>
    <linearGradient id="Gradient_10" gradientUnits="userSpaceOnUse" x1="487.179" y1="507.24" x2="520.1" y2="565.297" gradientTransform="matrix(1.067, 0, 0, 0.988, -8.611, -4.958)">
      <stop offset="0" stop-color="#F0F0EF"/>
      <stop offset="0.599" stop-color="#E8E8E8"/>
      <stop offset="0.828" stop-color="#FFFFFF"/>
      <stop offset="1" stop-color="#D8D8D3"/>
    </linearGradient>
    <linearGradient id="Gradient_11" gradientUnits="userSpaceOnUse" x1="504.785" y1="523.395" x2="537.706" y2="581.452" gradientTransform="matrix(1.067, 0, 0, 0.989, 4.392, 4.035)">
      <stop offset="0" stop-color="#F0F0EF"/>
      <stop offset="0.599" stop-color="#E8E8E8"/>
      <stop offset="0.828" stop-color="#FFFFFF"/>
      <stop offset="1" stop-color="#D8D8D3"/>
    </linearGradient>
    <linearGradient id="Gradient_12" gradientUnits="userSpaceOnUse" x1="571.052" y1="579.131" x2="565.356" y2="571.522" gradientTransform="matrix(1, 0, 0, 1, 6.162, 4.033)">
      <stop offset="0" stop-color="#7C7C7C"/>
      <stop offset="1" stop-color="#B8B8B8"/>
    </linearGradient>
    <linearGradient id="Gradient_13" gradientUnits="userSpaceOnUse" x1="670.434" y1="98.418" x2="703.355" y2="156.475" gradientTransform="matrix(1.067, 0, 0, 0.988, -8.611, -4.958)">
      <stop offset="0" stop-color="#F0F0EF"/>
      <stop offset="0.599" stop-color="#E8E8E8"/>
      <stop offset="0.828" stop-color="#FFFFFF"/>
      <stop offset="1" stop-color="#D8D8D3"/>
    </linearGradient>
    <linearGradient id="Gradient_14" gradientUnits="userSpaceOnUse" x1="688.052" y1="115.016" x2="720.973" y2="173.073" gradientTransform="matrix(1.067, 0, 0, 0.989, 4.392, 4.035)">
      <stop offset="0" stop-color="#F0F0EF"/>
      <stop offset="0.599" stop-color="#E8E8E8"/>
      <stop offset="0.828" stop-color="#FFFFFF"/>
      <stop offset="1" stop-color="#D8D8D3"/>
    </linearGradient>
    <linearGradient id="Gradient_15" gradientUnits="userSpaceOnUse" x1="766.641" y1="175.131" x2="760.945" y2="167.522" gradientTransform="matrix(1, 0, 0, 1, 6.162, 4.033)">
      <stop offset="0" stop-color="#7C7C7C"/>
      <stop offset="1" stop-color="#B8B8B8"/>
    </linearGradient>
  </defs>
  <g id="Layer_1">
    <g>
      <g id="g4268" opacity="0.5">
        <path d="M426.324,154.794 L458.128,154.794 L458.128,160.46 L426.324,160.46 z" fill="#000000" id="rect2279" opacity="0.17"/>
        <g id="rect4238">
          <path d="M382.672,63.306 L455.625,63.306 C456.389,63.306 457.008,64.024 457.008,64.91 L457.008,163.623 C457.008,164.509 456.389,165.227 455.625,165.227 L382.672,165.227 C381.907,165.227 381.288,164.509 381.288,163.623 L381.288,64.91 C381.288,64.024 381.907,63.306 382.672,63.306 z" fill="url(#Gradient_1)"/>
          <path d="M382.672,63.306 L455.625,63.306 C456.389,63.306 457.008,64.024 457.008,64.91 L457.008,163.623 C457.008,164.509 456.389,165.227 455.625,165.227 L382.672,165.227 C381.907,165.227 381.288,164.509 381.288,163.623 L381.288,64.91 C381.288,64.024 381.907,63.306 382.672,63.306 z" fill-opacity="0" stroke="#888A85" stroke-width="1"/>
        </g>
        <path d="M383.695,66.133 L454.57,66.133 L454.57,162.4 L383.695,162.4 z" fill-opacity="0" stroke="#FFFFFF" stroke-width="1" stroke-opacity="0.5" id="rect4240"/>
        <path d="M394.164,86.803 L445.539,86.803 L445.539,92.469 L394.164,92.469 z" fill="#000000" id="rect4248" opacity="0.17"/>
        <path d="M394.164,98.135 L443.092,98.135 L443.092,103.801 L394.164,103.801 z" fill="#000000" id="rect4250" opacity="0.17"/>
        <path d="M394.164,109.467 L438.2,109.467 L438.2,115.132 L394.164,115.132 z" fill="#000000" id="rect4252" opacity="0.17"/>
        <path d="M394.164,120.798 L445.539,120.798 L445.539,126.464 L394.164,126.464 z" fill="#000000" id="rect4254" opacity="0.17"/>
        <path d="M394.164,132.13 L425.968,132.13 L425.968,137.796 L394.164,137.796 z" fill="#000000" id="rect4256" opacity="0.17"/>
      </g>
      <g id="g12863">
        <g id="rect12413">
          <path d="M414.441,88.787 L487.372,88.787 C488.144,88.787 488.765,89.504 488.765,90.394 L488.765,167.311 C488.765,174.322 471.959,190.818 466.126,190.818 L414.441,190.818 C413.67,190.818 413.049,190.102 413.049,189.212 L413.049,90.394 C413.049,89.504 413.67,88.787 414.441,88.787 z" fill="url(#Gradient_2)"/>
          <path d="M414.441,88.787 L487.372,88.787 C488.144,88.787 488.765,89.504 488.765,90.394 L488.765,167.311 C488.765,174.322 471.959,190.818 466.126,190.818 L414.441,190.818 C413.67,190.818 413.049,190.102 413.049,189.212 L413.049,90.394 C413.049,89.504 413.67,88.787 414.441,88.787 z" fill-opacity="0" stroke="#888A85" stroke-width="1"/>
        </g>
        <path d="M415.492,91.616 L486.324,91.616 L486.324,187.993 L415.492,187.993 z" fill-opacity="0" stroke="#FFFFFF" stroke-width="1" stroke-opacity="0.5" id="rect15244"/>
        <g id="path2210">
          <path d="M466.1,190.813 C471.06,191.747 489.523,177.988 488.78,166.754 C484.961,173.614 477.156,170.397 467.119,170.847 C467.119,170.847 468.085,189.398 466.1,190.813 z" fill="url(#Gradient_3)"/>
          <path d="M466.1,190.813 C471.06,191.747 489.523,177.988 488.78,166.754 C484.961,173.614 477.156,170.397 467.119,170.847 C467.119,170.847 468.085,189.398 466.1,190.813 z" fill-opacity="0" stroke="#868A84" stroke-width="1"/>
        </g>
        <path d="M469.643,184.609 C472.989,182.673 480.46,178.532 483.634,173.206 C479.735,175.131 476.434,173.799 469.705,173.745 C469.705,173.745 470.101,182.415 469.643,184.609 z" fill-opacity="0" stroke="#FFFFFF" stroke-width="1" stroke-opacity="0.5" id="path2247" opacity="0.369"/>
        <path d="M425.977,112.445 L477.274,112.445 L477.274,118.107 L425.977,118.107 z" fill="#000000" id="rect2271" opacity="0.17"/>
        <path d="M425.977,123.77 L474.812,123.77 L474.812,129.432 L425.977,129.432 z" fill="#000000" id="rect2273" opacity="0.17"/>
        <path d="M425.977,135.095 L469.889,135.095 L469.889,140.757 L425.977,140.757 z" fill="#000000" id="rect2275" opacity="0.17"/>
        <path d="M425.977,146.419 L477.274,146.419 L477.274,152.082 L425.977,152.082 z" fill="#000000" id="rect2277" opacity="0.17"/>
      </g>
    </g>
    <g id="g4268">
      <path d="M464.445,414.986 L494.089,414.986 L494.089,419.882 L464.445,419.882 z" fill="#000000" id="rect2279" opacity="0.17"/>
      <g id="rect4238">
        <path d="M423.79,336 L491.79,336 C492.502,336 493.08,336.62 493.08,337.386 L493.08,422.683 C493.08,423.448 492.502,424.069 491.79,424.069 L423.79,424.069 C423.078,424.069 422.5,423.448 422.5,422.683 L422.5,337.386 C422.5,336.62 423.078,336 423.79,336 z" fill="url(#Gradient_4)"/>
        <path d="M423.79,336 L491.79,336 C492.502,336 493.08,336.62 493.08,337.386 L493.08,422.683 C493.08,423.448 492.502,424.069 491.79,424.069 L423.79,424.069 C423.078,424.069 422.5,423.448 422.5,422.683 L422.5,337.386 C422.5,336.62 423.078,336 423.79,336 z" fill-opacity="0" stroke="#96899F" stroke-width="1"/>
      </g>
      <path d="M424.744,338.442 L490.807,338.442 L490.807,421.626 L424.744,421.626 z" fill-opacity="0" stroke="#FFFFFF" stroke-width="1" stroke-opacity="0.5" id="rect4240"/>
      <path d="M434.468,356.235 L482.355,356.235 L482.355,361.131 L434.468,361.131 z" fill="#ADA7B7" id="rect4248"/>
      <path d="M434.468,366.027 L480.075,366.027 L480.075,370.923 L434.468,370.923 z" fill="#ADA7B7" id="rect4250"/>
      <path d="M434.468,375.819 L475.514,375.819 L475.514,380.715 L434.468,380.715 z" fill="#ADA7B7" id="rect4252"/>
      <path d="M434.468,385.611 L482.355,385.611 L482.355,390.506 L434.468,390.506 z" fill="#ADA7B7" id="rect4254"/>
      <path d="M434.468,395.402 L464.113,395.402 L464.113,400.298 L434.468,400.298 z" fill="#ADA7B7" id="rect4256"/>
    </g>
    <g id="g12863">
      <g id="rect12413">
        <path d="M202.283,154.862 L307.694,154.862 C308.809,154.862 309.707,155.878 309.707,157.139 L309.707,266.16 C309.707,276.098 285.417,299.48 276.985,299.48 L202.283,299.48 C201.168,299.48 200.27,298.464 200.27,297.203 L200.27,157.139 C200.27,155.878 201.168,154.862 202.283,154.862 z" fill="url(#Gradient_5)"/>
        <path d="M202.283,154.862 L307.694,154.862 C308.809,154.862 309.707,155.878 309.707,157.139 L309.707,266.16 C309.707,276.098 285.417,299.48 276.985,299.48 L202.283,299.48 C201.168,299.48 200.27,298.464 200.27,297.203 L200.27,157.139 C200.27,155.878 201.168,154.862 202.283,154.862 z" fill-opacity="0" stroke="#8B7D95" stroke-width="1"/>
      </g>
      <path d="M203.801,158.871 L306.18,158.871 L306.18,295.475 L203.801,295.475 z" fill-opacity="0" stroke="#FFFFFF" stroke-width="1" stroke-opacity="0.5" id="rect15244"/>
      <g id="path2210">
        <path d="M276.948,299.473 C284.117,300.796 310.803,281.294 309.728,265.371 C304.209,275.095 292.927,270.535 278.421,271.173 C278.421,271.173 279.817,297.466 276.948,299.473 z" fill="url(#Gradient_6)"/>
        <path d="M276.948,299.473 C284.117,300.796 310.803,281.294 309.728,265.371 C304.209,275.095 292.927,270.535 278.421,271.173 C278.421,271.173 279.817,297.466 276.948,299.473 z" fill-opacity="0" stroke="#8B7D95" stroke-width="1"/>
      </g>
      <path d="M282.069,290.678 C286.905,287.934 297.704,282.065 302.291,274.516 C296.656,277.245 291.884,275.357 282.159,275.28 C282.159,275.28 282.732,287.568 282.069,290.678 z" fill-opacity="0" stroke="#FFFFFF" stroke-width="1" stroke-opacity="0.5" id="path2247" opacity="0.369"/>
      <path d="M219.178,188.603 L293.321,188.603 L293.321,196.628 L219.178,196.628 z" fill="#ADA7B7" id="rect2271"/>
      <path d="M219.178,204.654 L289.763,204.654 L289.763,212.68 L219.178,212.68 z" fill="#ADA7B7" id="rect2273"/>
      <path d="M219.178,220.706 L282.647,220.706 L282.647,228.732 L219.178,228.732 z" fill="#ADA7B7" id="rect2275"/>
      <path d="M219.178,236.758 L293.321,236.758 L293.321,244.784 L219.178,244.784 z" fill="#ADA7B7" id="rect2277"/>
    </g>
    <g id="g4268">
      <path d="M627.356,291.538 L657,291.538 L657,296.434 L627.356,296.434 z" fill="#000000" id="rect2279" opacity="0.17"/>
      <g id="rect4238">
        <path d="M586.701,212.552 L654.701,212.552 C655.413,212.552 655.991,213.173 655.991,213.938 L655.991,299.235 C655.991,300 655.413,300.621 654.701,300.621 L586.701,300.621 C585.988,300.621 585.411,300 585.411,299.235 L585.411,213.938 C585.411,213.173 585.988,212.552 586.701,212.552 z" fill="url(#Gradient_7)"/>
        <path d="M586.701,212.552 L654.701,212.552 C655.413,212.552 655.991,213.173 655.991,213.938 L655.991,299.235 C655.991,300 655.413,300.621 654.701,300.621 L586.701,300.621 C585.988,300.621 585.411,300 585.411,299.235 L585.411,213.938 C585.411,213.173 585.988,212.552 586.701,212.552 z" fill-opacity="0" stroke="#96899F" stroke-width="1"/>
      </g>
      <path d="M587.655,214.994 L653.718,214.994 L653.718,298.178 L587.655,298.178 z" fill-opacity="0" stroke="#FFFFFF" stroke-width="1" stroke-opacity="0.5" id="rect4240"/>
      <path d="M597.379,232.787 L645.266,232.787 L645.266,237.683 L597.379,237.683 z" fill="#ADA7B7" id="rect4248"/>
      <path d="M597.379,242.579 L642.986,242.579 L642.986,247.475 L597.379,247.475 z" fill="#ADA7B7" id="rect4250"/>
      <path d="M597.379,252.371 L638.425,252.371 L638.425,257.267 L597.379,257.267 z" fill="#ADA7B7" id="rect4252"/>
      <path d="M597.379,262.163 L645.266,262.163 L645.266,267.059 L597.379,267.059 z" fill="#ADA7B7" id="rect4254"/>
      <path d="M597.379,271.954 L627.023,271.954 L627.023,276.85 L597.379,276.85 z" fill="#ADA7B7" id="rect4256"/>
    </g>
    <g id="g4268">
      <path d="M678.856,438.917 L708.5,438.917 L708.5,443.813 L678.856,443.813 z" fill="#000000" id="rect2279" opacity="0.17"/>
      <g id="rect4238">
        <path d="M638.201,359.931 L706.201,359.931 C706.913,359.931 707.491,360.552 707.491,361.317 L707.491,446.614 C707.491,447.38 706.913,448 706.201,448 L638.201,448 C637.488,448 636.911,447.38 636.911,446.614 L636.911,361.317 C636.911,360.552 637.488,359.931 638.201,359.931 z" fill="url(#Gradient_8)"/>
        <path d="M638.201,359.931 L706.201,359.931 C706.913,359.931 707.491,360.552 707.491,361.317 L707.491,446.614 C707.491,447.38 706.913,448 706.201,448 L638.201,448 C637.488,448 636.911,447.38 636.911,446.614 L636.911,361.317 C636.911,360.552 637.488,359.931 638.201,359.931 z" fill-opacity="0" stroke="#96899F" stroke-width="1"/>
      </g>
      <path d="M639.155,362.373 L705.218,362.373 L705.218,445.557 L639.155,445.557 z" fill-opacity="0" stroke="#FFFFFF" stroke-width="1" stroke-opacity="0.5" id="rect4240"/>
      <path d="M648.879,380.166 L696.766,380.166 L696.766,385.062 L648.879,385.062 z" fill="#ADA7B7" id="rect4248"/>
      <path d="M648.879,389.958 L694.486,389.958 L694.486,394.854 L648.879,394.854 z" fill="#ADA7B7" id="rect4250"/>
      <path d="M648.879,399.75 L689.925,399.75 L689.925,404.646 L648.879,404.646 z" fill="#ADA7B7" id="rect4252"/>
      <path d="M648.879,409.542 L696.766,409.542 L696.766,414.438 L648.879,414.438 z" fill="#ADA7B7" id="rect4254"/>
      <path d="M648.879,419.333 L678.523,419.333 L678.523,424.229 L648.879,424.229 z" fill="#ADA7B7" id="rect4256"/>
    </g>
    <g id="g4268">
      <path d="M301.856,513.917 L331.5,513.917 L331.5,518.813 L301.856,518.813 z" fill="#000000" id="rect2279" opacity="0.17"/>
      <g id="rect4238">
        <path d="M261.201,434.931 L329.201,434.931 C329.913,434.931 330.491,435.552 330.491,436.317 L330.491,521.614 C330.491,522.38 329.913,523 329.201,523 L261.201,523 C260.488,523 259.911,522.38 259.911,521.614 L259.911,436.317 C259.911,435.552 260.488,434.931 261.201,434.931 z" fill="url(#Gradient_9)"/>
        <path d="M261.201,434.931 L329.201,434.931 C329.913,434.931 330.491,435.552 330.491,436.317 L330.491,521.614 C330.491,522.38 329.913,523 329.201,523 L261.201,523 C260.488,523 259.911,522.38 259.911,521.614 L259.911,436.317 C259.911,435.552 260.488,434.931 261.201,434.931 z" fill-opacity="0" stroke="#96899F" stroke-width="1"/>
      </g>
      <path d="M262.155,437.373 L328.218,437.373 L328.218,520.557 L262.155,520.557 z" fill-opacity="0" stroke="#FFFFFF" stroke-width="1" stroke-opacity="0.5" id="rect4240"/>
      <path d="M271.879,455.166 L319.766,455.166 L319.766,460.062 L271.879,460.062 z" fill="#ADA7B7" id="rect4248"/>
      <path d="M271.879,464.958 L317.486,464.958 L317.486,469.854 L271.879,469.854 z" fill="#ADA7B7" id="rect4250"/>
      <path d="M271.879,474.75 L312.925,474.75 L312.925,479.646 L271.879,479.646 z" fill="#ADA7B7" id="rect4252"/>
      <path d="M271.879,484.542 L319.766,484.542 L319.766,489.438 L271.879,489.438 z" fill="#ADA7B7" id="rect4254"/>
      <path d="M271.879,494.333 L301.523,494.333 L301.523,499.229 L271.879,499.229 z" fill="#ADA7B7" id="rect4256"/>
    </g>
    <g>
      <g id="g4268" opacity="0.5">
        <path d="M522.933,552.936 L554.737,552.936 L554.737,558.601 L522.933,558.601 z" fill="#000000" id="rect2279" opacity="0.17"/>
        <g id="rect4238">
          <path d="M479.281,461.448 L552.234,461.448 C552.998,461.448 553.618,462.166 553.618,463.052 L553.618,561.765 C553.618,562.65 552.998,563.368 552.234,563.368 L479.281,563.368 C478.517,563.368 477.897,562.65 477.897,561.765 L477.897,463.052 C477.897,462.166 478.517,461.448 479.281,461.448 z" fill="url(#Gradient_10)"/>
          <path d="M479.281,461.448 L552.234,461.448 C552.998,461.448 553.618,462.166 553.618,463.052 L553.618,561.765 C553.618,562.65 552.998,563.368 552.234,563.368 L479.281,563.368 C478.517,563.368 477.897,562.65 477.897,561.765 L477.897,463.052 C477.897,462.166 478.517,461.448 479.281,461.448 z" fill-opacity="0" stroke="#888A85" stroke-width="1"/>
        </g>
        <path d="M480.305,464.274 L551.179,464.274 L551.179,560.541 L480.305,560.541 z" fill-opacity="0" stroke="#FFFFFF" stroke-width="1" stroke-opacity="0.5" id="rect4240"/>
        <path d="M490.773,484.944 L542.148,484.944 L542.148,490.61 L490.773,490.61 z" fill="#000000" id="rect4248" opacity="0.17"/>
        <path d="M490.773,496.276 L539.702,496.276 L539.702,501.942 L490.773,501.942 z" fill="#000000" id="rect4250" opacity="0.17"/>
        <path d="M490.773,507.608 L534.809,507.608 L534.809,513.274 L490.773,513.274 z" fill="#000000" id="rect4252" opacity="0.17"/>
        <path d="M490.773,518.94 L542.148,518.94 L542.148,524.606 L490.773,524.606 z" fill="#000000" id="rect4254" opacity="0.17"/>
        <path d="M490.773,530.272 L522.577,530.272 L522.577,535.938 L490.773,535.938 z" fill="#000000" id="rect4256" opacity="0.17"/>
      </g>
      <g id="g12863">
        <g id="rect12413">
          <path d="M511.051,486.929 L583.982,486.929 C584.753,486.929 585.374,487.645 585.374,488.536 L585.374,565.452 C585.374,572.464 568.569,588.96 562.735,588.96 L511.051,588.96 C510.279,588.96 509.658,588.243 509.658,587.353 L509.658,488.536 C509.658,487.645 510.279,486.929 511.051,486.929 z" fill="url(#Gradient_11)"/>
          <path d="M511.051,486.929 L583.982,486.929 C584.753,486.929 585.374,487.645 585.374,488.536 L585.374,565.452 C585.374,572.464 568.569,588.96 562.735,588.96 L511.051,588.96 C510.279,588.96 509.658,588.243 509.658,587.353 L509.658,488.536 C509.658,487.645 510.279,486.929 511.051,486.929 z" fill-opacity="0" stroke="#888A85" stroke-width="1"/>
        </g>
        <path d="M512.101,489.758 L582.934,489.758 L582.934,586.134 L512.101,586.134 z" fill-opacity="0" stroke="#FFFFFF" stroke-width="1" stroke-opacity="0.5" id="rect15244"/>
        <g id="path2210">
          <path d="M562.71,588.955 C567.669,589.889 586.133,576.13 585.389,564.896 C581.57,571.756 573.765,568.539 563.729,568.989 C563.729,568.989 564.694,587.539 562.71,588.955 z" fill="url(#Gradient_12)"/>
          <path d="M562.71,588.955 C567.669,589.889 586.133,576.13 585.389,564.896 C581.57,571.756 573.765,568.539 563.729,568.989 C563.729,568.989 564.694,587.539 562.71,588.955 z" fill-opacity="0" stroke="#868A84" stroke-width="1"/>
        </g>
        <path d="M566.253,582.75 C569.599,580.814 577.07,576.673 580.244,571.348 C576.345,573.273 573.043,571.941 566.314,571.887 C566.314,571.887 566.711,580.556 566.253,582.75 z" fill-opacity="0" stroke="#FFFFFF" stroke-width="1" stroke-opacity="0.5" id="path2247" opacity="0.369"/>
        <path d="M522.586,510.586 L573.884,510.586 L573.884,516.249 L522.586,516.249 z" fill="#000000" id="rect2271" opacity="0.17"/>
        <path d="M522.586,521.911 L571.422,521.911 L571.422,527.574 L522.586,527.574 z" fill="#000000" id="rect2273" opacity="0.17"/>
        <path d="M522.586,533.236 L566.498,533.236 L566.498,538.899 L522.586,538.899 z" fill="#000000" id="rect2275" opacity="0.17"/>
        <path d="M522.586,544.561 L573.884,544.561 L573.884,550.223 L522.586,550.223 z" fill="#000000" id="rect2277" opacity="0.17"/>
      </g>
    </g>
    <g>
      <g id="g4268" opacity="0.5">
        <path d="M718.523,148.936 L750.326,148.936 L750.326,154.601 L718.523,154.601 z" fill="#000000" id="rect2279" opacity="0.17"/>
        <g id="rect4238">
          <path d="M674.87,57.448 L747.823,57.448 C748.587,57.448 749.207,58.166 749.207,59.052 L749.207,157.765 C749.207,158.65 748.587,159.368 747.823,159.368 L674.87,159.368 C674.106,159.368 673.486,158.65 673.486,157.765 L673.486,59.052 C673.486,58.166 674.106,57.448 674.87,57.448 z" fill="url(#Gradient_13)"/>
          <path d="M674.87,57.448 L747.823,57.448 C748.587,57.448 749.207,58.166 749.207,59.052 L749.207,157.765 C749.207,158.65 748.587,159.368 747.823,159.368 L674.87,159.368 C674.106,159.368 673.486,158.65 673.486,157.765 L673.486,59.052 C673.486,58.166 674.106,57.448 674.87,57.448 z" fill-opacity="0" stroke="#888A85" stroke-width="1"/>
        </g>
        <path d="M675.894,60.274 L746.769,60.274 L746.769,156.541 L675.894,156.541 z" fill-opacity="0" stroke="#FFFFFF" stroke-width="1" stroke-opacity="0.5" id="rect4240"/>
        <path d="M686.363,80.944 L737.738,80.944 L737.738,86.61 L686.363,86.61 z" fill="#000000" id="rect4248" opacity="0.17"/>
        <path d="M686.363,92.276 L735.291,92.276 L735.291,97.942 L686.363,97.942 z" fill="#000000" id="rect4250" opacity="0.17"/>
        <path d="M686.363,103.608 L730.398,103.608 L730.398,109.274 L686.363,109.274 z" fill="#000000" id="rect4252" opacity="0.17"/>
        <path d="M686.363,114.94 L737.738,114.94 L737.738,120.606 L686.363,120.606 z" fill="#000000" id="rect4254" opacity="0.17"/>
        <path d="M686.363,126.272 L718.166,126.272 L718.166,131.938 L686.363,131.938 z" fill="#000000" id="rect4256" opacity="0.17"/>
      </g>
      <g id="g12863">
        <g id="rect12413">
          <path d="M706.64,82.929 L779.571,82.929 C780.342,82.929 780.963,83.645 780.963,84.536 L780.963,161.452 C780.963,168.464 764.158,184.96 758.324,184.96 L706.64,184.96 C705.869,184.96 705.248,184.243 705.248,183.353 L705.248,84.536 C705.248,83.645 705.869,82.929 706.64,82.929 z" fill="url(#Gradient_14)"/>
          <path d="M706.64,82.929 L779.571,82.929 C780.342,82.929 780.963,83.645 780.963,84.536 L780.963,161.452 C780.963,168.464 764.158,184.96 758.324,184.96 L706.64,184.96 C705.869,184.96 705.248,184.243 705.248,183.353 L705.248,84.536 C705.248,83.645 705.869,82.929 706.64,82.929 z" fill-opacity="0" stroke="#888A85" stroke-width="1"/>
        </g>
        <path d="M707.69,85.758 L778.523,85.758 L778.523,182.134 L707.69,182.134 z" fill-opacity="0" stroke="#FFFFFF" stroke-width="1" stroke-opacity="0.5" id="rect15244"/>
        <g id="path2210">
          <path d="M758.299,184.955 C763.259,185.889 781.722,172.13 780.978,160.896 C777.16,167.756 769.354,164.539 759.318,164.989 C759.318,164.989 760.284,183.539 758.299,184.955 z" fill="url(#Gradient_15)"/>
          <path d="M758.299,184.955 C763.259,185.889 781.722,172.13 780.978,160.896 C777.16,167.756 769.354,164.539 759.318,164.989 C759.318,164.989 760.284,183.539 758.299,184.955 z" fill-opacity="0" stroke="#868A84" stroke-width="1"/>
        </g>
        <path d="M761.842,178.75 C765.188,176.814 772.659,172.673 775.833,167.348 C771.934,169.273 768.632,167.941 761.904,167.887 C761.904,167.887 762.3,176.556 761.842,178.75 z" fill-opacity="0" stroke="#FFFFFF" stroke-width="1" stroke-opacity="0.5" id="path2247" opacity="0.369"/>
        <path d="M718.175,106.586 L769.473,106.586 L769.473,112.249 L718.175,112.249 z" fill="#000000" id="rect2271" opacity="0.17"/>
        <path d="M718.175,117.911 L767.011,117.911 L767.011,123.574 L718.175,123.574 z" fill="#000000" id="rect2273" opacity="0.17"/>
        <path d="M718.175,129.236 L762.088,129.236 L762.088,134.899 L718.175,134.899 z" fill="#000000" id="rect2275" opacity="0.17"/>
        <path d="M718.175,140.561 L769.473,140.561 L769.473,146.223 L718.175,146.223 z" fill="#000000" id="rect2277" opacity="0.17"/>
      </g>
    </g>
    <path d="M224.5,226.5 C232.103,227.796 241.081,224.027 248.5,226.5" fill-opacity="0" stroke="#0403A7" stroke-width="6" stroke-linecap="round" stroke-linejoin="round"/>
    <path d="M445.897,139.148 C453.499,140.444 462.477,136.674 469.897,139.148" fill-opacity="0" stroke="#0403A7" stroke-width="6" stroke-linecap="round" stroke-linejoin="round"/>
    <path d="M723.5,108.22 C731.103,109.516 740.081,105.747 747.5,108.22" fill-opacity="0" stroke="#0403A7" stroke-width="6" stroke-linecap="round" stroke-linejoin="round"/>
    <path d="M545.559,514.72 C553.162,516.016 562.14,512.247 569.559,514.72" fill-opacity="0" stroke="#0403A7" stroke-width="6" stroke-linecap="round" stroke-linejoin="round"/>
    <path d="M649.486,423.789 C657.089,425.085 666.067,421.316 673.486,423.789" fill-opacity="0" stroke="#0403A7" stroke-width="6" stroke-linecap="round" stroke-linejoin="round"/>
    <path d="M293,469.22 C300.603,470.516 309.581,466.747 317,469.22" fill-opacity="0" stroke="#0403A7" stroke-width="6" stroke-linecap="round" stroke-linejoin="round"/>
    <path d="M846.095,133.044 L846.186,132.829 L846.338,132.442 L846.456,132.109 L846.542,131.825 L846.599,131.588 L846.629,131.394 L846.635,131.239 L846.621,131.118 L846.587,131.027 L846.531,130.957 L846.357,130.863 L846.126,130.859 L845.955,130.926 L845.805,131.014 L845.693,131.094 L845.639,131.138 L845.833,131.227 L845.873,131.195 L845.939,131.138 L846.036,131.052 L846.165,130.934 L846.33,130.78 L846.534,130.587 L846.779,130.35 L847.069,130.067 L847.406,129.734 L847.593,129.548 L847.593,129.548 C847.607,129.533 847.577,129.5 847.526,129.474 C847.475,129.448 847.422,129.438 847.408,129.452 L847.221,129.639 L846.884,129.972 L846.594,130.254 L846.349,130.491 L846.146,130.684 L845.981,130.837 L845.852,130.955 L845.756,131.041 L845.69,131.097 L845.653,131.128 L845.822,131.235 L845.874,131.193 L845.983,131.115 L846.127,131.03 L846.277,130.968 L846.348,130.935 L846.359,130.921 L846.398,130.964 L846.429,131.044 L846.443,131.16 L846.437,131.312 L846.407,131.504 L846.351,131.74 L846.265,132.022 L846.148,132.355 L845.995,132.741 L845.905,132.956 C845.905,132.956 845.905,132.956 845.905,132.956 C845.897,132.974 845.934,133.008 845.987,133.032 C846.039,133.056 846.088,133.062 846.095,133.044 L846.095,133.044" fill="#0403A7"/>
    <path d="M233.05,236.652 L233.745,240.475 L235.146,248.106 L236.231,253.803 L236.99,257.584 L237.779,261.342 L238.614,265.078 L239.496,268.785 L240.436,272.461 L241.44,276.104 L242.516,279.706 L243.673,283.268 L244.918,286.784 L245.918,289.395 L246.616,291.121 L247.336,292.829 L248.084,294.522 L248.867,296.204 L249.679,297.872 L250.52,299.523 L251.391,301.16 L252.293,302.78 L253.227,304.383 L254.206,305.973 L255.219,307.546 L256.269,309.102 L257.355,310.639 L258.481,312.159 L259.653,313.662 L260.869,315.147 L262.127,316.613 L263.43,318.06 L264.779,319.487 L266.175,320.894 L267.62,322.282 L269.116,323.648 L270.664,324.994 L272.267,326.318 L273.925,327.619 L275.641,328.898 L277.408,330.151 L279.231,331.38 L281.115,332.581 L283.057,333.754 L285.049,334.898 L287.1,336.011 L289.207,337.088 L291.367,338.129 L293.577,339.137 L294.755,339.65 L294.755,339.65 C294.792,339.666 294.83,339.682 294.867,339.698 L294.867,339.698 L295.433,339.936 L296.759,340.467 L298.159,340.995 L299.578,341.502 L301.016,341.986 L302.473,342.449 L303.951,342.895 L305.451,343.327 L306.972,343.744 L308.517,344.149 L310.084,344.543 L311.676,344.928 L314.091,345.485 L317.402,346.206 L320.813,346.908 L324.306,347.593 L327.874,348.267 L331.511,348.936 L335.21,349.605 L338.962,350.278 L342.759,350.961 L346.59,351.657 L350.45,352.373 L354.326,353.111 L358.208,353.876 L362.087,354.673 L365.949,355.503 L369.786,356.373 L373.572,357.268 L377.284,358.176 L380.876,359.042 L384.376,359.905 L387.799,360.787 L391.215,361.847 L393.7,362.702 L395.317,363.319 L396.934,363.975 L398.514,364.654 L400.052,365.347 L401.544,366.059 L402.987,366.781 L404.379,367.515 L404.995,367.856 L404.995,367.856 C407.452,369.07 409.893,369.447 410.448,368.699 C411.004,367.95 409.462,366.358 407.005,365.144 L405.996,364.681 L404.098,363.845 L402.202,363.044 L400.308,362.28 L398.414,361.541 L396.52,360.832 L394.622,360.142 L392.685,359.455 L389.772,358.429 L385.875,357.114 L381.867,355.764 L377.837,354.53 L373.817,353.421 L369.851,352.47 L365.909,351.609 L361.987,350.819 L358.076,350.073 L354.185,349.369 L350.315,348.699 L346.476,348.057 L342.673,347.439 L338.913,346.837 L335.206,346.249 L331.558,345.667 L327.978,345.088 L324.475,344.506 L321.058,343.916 L317.739,343.315 L314.526,342.697 L311.42,342.058 L309.168,341.561 L307.721,341.225 L306.311,340.883 L304.942,340.533 L303.615,340.178 L302.334,339.818 L301.1,339.451 L299.917,339.079 L298.79,338.704 L297.719,338.327 L296.708,337.947 L295.702,337.543 L295.133,337.302 L295.245,337.35 L294.396,336.98 L292.633,336.175 L290.928,335.341 L289.276,334.482 L287.672,333.597 L286.111,332.685 L284.6,331.742 L283.129,330.77 L281.695,329.769 L280.298,328.738 L278.945,327.676 L277.625,326.584 L276.339,325.462 L275.086,324.31 L273.867,323.128 L272.681,321.917 L271.528,320.677 L270.409,319.41 L269.322,318.115 L268.269,316.794 L267.247,315.446 L266.256,314.074 L265.289,312.675 L264.353,311.252 L263.448,309.806 L262.574,308.338 L261.729,306.847 L260.902,305.333 L260.104,303.798 L259.333,302.243 L258.59,300.669 L257.873,299.076 L257.182,297.466 L256.506,295.834 L255.853,294.186 L255.226,292.526 L254.325,290.004 L253.189,286.58 L252.124,283.099 L251.125,279.565 L250.186,275.983 L249.301,272.357 L248.46,268.691 L247.662,264.99 L246.892,261.256 L246.152,257.498 L245.072,251.814 L243.66,244.18 L242.95,240.349 C242.95,240.349 242.95,240.349 242.95,240.349 C242.734,239.178 240.343,237.402 237.61,236.381 C234.876,235.36 232.835,235.481 233.05,236.652 L233.05,236.652" fill="#0403A7"/>
    <path d="M398.5,355 L406,366.5" fill-opacity="0" stroke="#0403A7" stroke-width="5"/>
    <path d="M391,366.5 L406,366.5" fill-opacity="0" stroke="#0403A7" stroke-width="5"/>
    <path d="M730.813,116.683 L730.717,119.543 L730.516,125.183 L730.294,130.716 L730.039,136.144 L729.821,140.143 L729.659,142.776 L729.484,145.382 L729.292,147.96 L729.084,150.512 L728.858,153.037 L728.611,155.534 L728.344,158.003 L728.054,160.445 L727.74,162.86 L727.401,165.247 L727.035,167.606 L726.64,169.938 L726.216,172.241 L725.761,174.516 L725.273,176.763 L724.75,178.981 L724.191,181.171 L723.595,183.331 L722.957,185.462 L722.281,187.565 L721.553,189.634 L720.784,191.674 L719.966,193.683 L719.089,195.657 L718.166,197.601 L717.177,199.507 L716.126,201.378 L715.01,203.212 L713.843,205.017 L712.609,206.785 L711.323,208.523 L709.978,210.23 L708.575,211.906 L707.115,213.552 L705.598,215.169 L704.021,216.755 L702.383,218.312 L700.684,219.84 L698.922,221.337 L697.096,222.805 L695.203,224.242 L693.245,225.65 L691.217,227.028 L689.12,228.376 L686.951,229.693 L684.71,230.98 L682.395,232.237 L680.003,233.462 L677.536,234.658 L674.991,235.823 L672.364,236.956 L669.658,238.06 L666.868,239.132 L663.994,240.172 L661.036,241.182 L659.528,241.674 L659.528,241.674 C658.659,241.973 659.285,243.032 660.927,244.041 C662.568,245.05 664.603,245.625 665.472,245.326 L666.95,244.791 L669.831,243.701 L672.624,242.579 L675.333,241.426 L677.959,240.244 L680.499,239.029 L682.959,237.785 L685.34,236.51 L687.64,235.204 L689.863,233.868 L692.01,232.501 L694.082,231.104 L696.081,229.678 L698.006,228.22 L699.861,226.733 L701.646,225.216 L703.363,223.669 L705.012,222.092 L706.596,220.485 L708.115,218.848 L709.572,217.182 L710.968,215.488 L712.305,213.763 L713.583,212.011 L714.807,210.23 L715.979,208.422 L717.098,206.586 L718.18,204.729 L719.211,202.843 L720.209,200.936 L721.173,199.007 L722.109,197.059 L723.001,195.083 L723.864,193.085 L724.692,191.062 L725.478,189.01 L726.237,186.936 L726.957,184.833 L727.644,182.705 L728.298,180.548 L728.92,178.365 L729.509,176.155 L730.069,173.917 L730.6,171.652 L731.102,169.36 L731.578,167.041 L732.028,164.694 L732.455,162.321 L732.858,159.92 L733.24,157.492 L733.602,155.038 L733.944,152.557 L734.27,150.049 L734.579,147.514 L734.873,144.953 L735.154,142.365 L735.552,138.434 L736.05,133.102 L736.517,127.665 L736.966,122.126 L737.187,119.317 C737.187,119.317 737.187,119.317 737.187,119.317 C737.225,118.635 735.828,117.492 734.068,116.765 C732.308,116.038 730.851,116.001 730.813,116.683 L730.813,116.683" fill="#0403A7"/>
    <path d="M662.5,243.5 L673.486,230.5" fill-opacity="0" stroke="#0403A7" stroke-width="5"/>
    <path d="M662.5,243.5 L678.5,249.5" fill-opacity="0" stroke="#0403A7" stroke-width="5"/>
    <path d="M264.5,191.72 C272.103,193.016 281.081,189.247 288.5,191.72" fill-opacity="0" stroke="#0403A7" stroke-width="6" stroke-linecap="round" stroke-linejoin="round"/>
    <path d="M274.563,203.343 L274.826,204.056 L275.301,205.469 L275.937,207.621 L276.7,210.534 L277.448,213.465 L278.057,215.662 L278.509,217.123 L279.009,218.569 L279.573,220.002 L280.212,221.419 L280.943,222.821 L281.784,224.208 L282.51,225.256 L283.05,225.962 L283.347,226.328 L283.347,226.328 C283.357,226.34 283.367,226.352 283.377,226.364 L283.377,226.364 L283.775,226.837 L284.624,227.811 L285.51,228.781 L286.423,229.735 L287.361,230.672 L288.326,231.594 L289.317,232.499 L290.335,233.388 L291.887,234.672 L294.049,236.333 L296.344,237.952 L298.741,239.505 L301.231,240.989 L303.804,242.397 L306.449,243.727 L309.149,244.973 L311.895,246.137 L314.674,247.217 L317.48,248.215 L320.309,249.134 L323.159,249.978 L326.026,250.75 L328.913,251.456 L331.818,252.097 L334.741,252.677 L337.684,253.2 L340.645,253.669 L343.624,254.085 L346.62,254.452 L349.636,254.773 L352.668,255.049 L355.714,255.282 L358.774,255.473 L361.845,255.624 L364.926,255.737 L368.016,255.815 L371.111,255.857 L374.212,255.867 L378.859,255.825 L385.059,255.67 L391.254,255.418 L397.412,255.077 L403.518,254.66 L409.552,254.18 L415.498,253.649 L421.342,253.084 L425.647,252.645 L428.475,252.347 L431.264,252.047 L434.014,251.745 L436.722,251.445 L439.385,251.147 L442.003,250.854 L444.571,250.565 L447.089,250.284 L449.552,250.012 L451.96,249.75 L454.313,249.502 L456.605,249.268 L458.833,249.049 L459.919,248.946 L459.91,248.946 L461.77,248.777 L465.467,248.473 L469.154,248.212 L472.835,247.993 L476.514,247.813 L480.188,247.673 L483.858,247.572 L487.53,247.513 L491.199,247.492 L494.864,247.507 L500.365,247.595 L507.683,247.833 L514.977,248.2 L522.266,248.698 L529.541,249.313 L536.756,249.995 L543.89,250.715 L550.927,251.444 L557.949,252.248 L564.956,253.12 L571.99,254.096 L575.512,254.628 L575.512,254.628 C577.343,254.929 577.927,254.22 576.816,253.045 C575.705,251.87 573.32,250.673 571.488,250.372 C571.488,250.372 571.488,250.372 571.488,250.372 L567.768,249.715 L560.307,248.422 L552.802,247.183 L545.292,246.046 L537.781,245.017 L530.348,244.177 L522.977,243.508 L515.648,242.996 L508.314,242.603 L500.966,242.329 L493.623,242.189 L488.116,242.174 L484.436,242.21 L480.755,242.282 L477.072,242.392 L473.382,242.536 L469.691,242.72 L466,242.944 L462.306,243.209 L458.612,243.515 L454.925,243.864 L453.09,244.054 L453.09,244.054 C453.087,244.054 453.084,244.054 453.081,244.054 L453.081,244.054 L451.994,244.171 L449.78,244.417 L447.509,244.678 L445.181,244.952 L442.794,245.236 L440.355,245.531 L437.866,245.834 L435.329,246.144 L432.746,246.461 L430.119,246.781 L427.451,247.104 L424.743,247.428 L421.999,247.751 L419.222,248.072 L414.995,248.546 L409.255,249.152 L403.411,249.718 L397.489,250.234 L391.508,250.687 L385.485,251.065 L379.44,251.355 L373.381,251.542 L368.843,251.606 L365.832,251.612 L362.831,251.585 L359.845,251.526 L356.875,251.431 L353.924,251.3 L350.996,251.131 L348.093,250.924 L345.218,250.676 L342.375,250.386 L339.565,250.052 L336.794,249.674 L334.067,249.252 L331.387,248.785 L328.758,248.273 L326.187,247.716 L323.676,247.113 L321.231,246.466 L318.857,245.775 L316.556,245.04 L314.33,244.262 L312.181,243.442 L310.104,242.578 L308.095,241.665 L306.145,240.701 L304.246,239.678 L302.39,238.589 L300.571,237.427 L298.784,236.183 L297.004,234.83 L295.694,233.754 L294.849,233.021 L294.016,232.265 L293.194,231.485 L292.384,230.681 L291.587,229.853 L290.804,229.001 L290.024,228.111 L289.623,227.636 L289.653,227.672 L289.453,227.429 L289.042,226.902 L288.447,226.058 L287.705,224.852 L287.039,223.588 L286.441,222.277 L285.907,220.924 L285.425,219.538 L284.988,218.127 L284.386,215.963 L283.633,213.021 L282.854,210.056 L282.196,207.837 L281.701,206.371 L281.437,205.657 C281.111,204.773 279.307,203.538 277.409,202.899 C275.511,202.26 274.237,202.459 274.563,203.343 L274.563,203.343" fill="#0403A7"/>
    <path d="M573.5,252.5 L560.5,238.5" fill-opacity="0" stroke="#0403A7" stroke-width="5"/>
    <path d="M555.5,261.5 L573.5,252.5" fill-opacity="0" stroke="#0403A7" stroke-width="5"/>
    <path d="M555.832,527.063 L556.021,527.795 L556.443,529.25 L556.93,530.672 L557.482,532.056 L558.098,533.403 L558.78,534.716 L559.528,535.996 L560.342,537.246 L561.223,538.467 L562.173,539.661 L563.193,540.831 L564.283,541.976 L565.446,543.1 L566.687,544.202 L568.005,545.283 L569.4,546.342 L570.868,547.377 L572.408,548.385 L574.017,549.361 L575.682,550.298 L577.394,551.194 L579.141,552.044 L580.913,552.847 L582.701,553.593 L584.494,554.285 L586.283,554.924 L588.066,555.51 L589.833,556.038 L591.583,556.516 L593.311,556.937 L595.806,557.465 L597.525,557.771 L597.525,557.771 C597.577,557.781 597.628,557.789 597.679,557.797 L597.679,557.797 L598.604,557.939 L600.59,558.185 L602.578,558.367 L604.498,558.466 L606.37,558.502 L608.191,558.474 L609.945,558.368 L611.656,558.206 L613.312,557.979 L614.919,557.693 L616.487,557.355 L618.009,556.96 L619.497,556.516 L620.952,556.026 L622.384,555.495 L623.796,554.925 L625.177,554.311 L626.529,553.653 L627.865,552.959 L629.196,552.238 L630.5,551.475 L631.781,550.674 L633.056,549.845 L634.314,548.983 L635.584,548.103 L636.834,547.189 L638.071,546.246 L639.285,545.267 L640.474,544.254 L641.644,543.209 L642.788,542.13 L643.906,541.019 L645.001,539.878 L646.072,538.706 L647.117,537.503 L648.136,536.271 L649.131,535.012 L650.101,533.725 L651.044,532.411 L651.962,531.071 L652.855,529.706 L653.723,528.317 L654.564,526.905 L655.379,525.47 L656.168,524.013 L656.931,522.536 L657.668,521.038 L658.378,519.521 L659.063,517.986 L659.721,516.433 L660.353,514.863 L660.958,513.278 L661.536,511.677 L662.088,510.063 L662.613,508.435 L663.111,506.794 L663.807,504.313 L664.64,500.967 L665.365,497.585 L665.981,494.176 L666.249,492.461 L666.249,492.46 L666.409,491.435 L666.771,489.399 L667.182,487.374 L667.633,485.356 L668.363,482.339 L669.375,478.324 L670.35,474.301 L671.005,471.267 L671.385,469.232 L671.709,467.188 L671.956,465.126 L672.126,463.05 L672.201,460.954 L672.198,459.894 L672.198,459.894 C672.205,459.416 671.225,458.627 670.011,458.133 C668.797,457.64 667.808,457.627 667.802,458.106 C667.802,458.106 667.802,458.106 667.802,458.106 L667.774,459.13 L667.652,461.178 L667.45,463.216 L667.171,465.242 L666.837,467.265 L666.446,469.279 L665.783,472.294 L664.809,476.313 L663.811,480.341 L663.095,483.375 L662.653,485.409 L662.25,487.454 L661.901,489.509 L661.751,490.54 L661.751,490.54 C661.681,491.003 662.631,491.809 663.873,492.34 C665.115,492.87 666.179,492.924 666.249,492.461 C666.319,491.997 665.369,491.191 664.127,490.66 C662.885,490.13 661.821,490.076 661.751,490.539 L661.751,490.539 L661.502,492.248 L660.922,495.652 L660.234,499.03 L659.438,502.374 L658.771,504.857 L658.295,506.497 L657.791,508.125 L657.262,509.739 L656.705,511.339 L656.122,512.925 L655.513,514.494 L654.878,516.047 L654.216,517.582 L653.528,519.099 L652.813,520.596 L652.072,522.073 L651.305,523.528 L650.512,524.962 L649.693,526.374 L648.848,527.761 L647.977,529.124 L647.079,530.461 L646.155,531.772 L645.206,533.056 L644.231,534.312 L643.228,535.538 L642.2,536.734 L641.146,537.9 L640.067,539.034 L638.96,540.135 L637.827,541.202 L636.669,542.235 L635.481,543.23 L634.266,544.189 L633.025,545.11 L631.747,545.987 L630.438,546.821 L629.067,547.596 L627.664,548.324 L626.216,548.998 L624.742,549.628 L623.246,550.215 L621.704,550.743 L620.131,551.219 L618.537,551.649 L616.924,552.031 L615.282,552.359 L613.614,552.633 L611.931,552.858 L610.233,553.032 L608.533,553.163 L606.823,553.244 L605.114,553.282 L603.411,553.279 L601.703,553.225 L600.015,553.141 L598.329,553.01 L596.644,552.83 L594.979,552.62 L593.264,552.359 L592.321,552.203 L592.475,552.229 L591.261,552.013 L589.352,551.629 L588.148,551.356 L586.974,551.069 L585.829,550.762 L584.716,550.44 L583.632,550.1 L582.578,549.74 L581.548,549.361 L580.539,548.964 L579.544,548.54 L578.559,548.086 L577.576,547.597 L576.589,547.07 L575.592,546.497 L574.585,545.873 L573.572,545.195 L572.554,544.458 L571.534,543.663 L570.518,542.809 L569.513,541.894 L568.528,540.921 L567.568,539.89 L566.638,538.803 L565.743,537.659 L564.89,536.462 L564.084,535.211 L563.329,533.908 L562.632,532.555 L561.996,531.153 L561.425,529.694 L561.168,528.937 C560.969,528.272 559.613,527.314 558.139,526.797 C556.666,526.28 555.633,526.399 555.832,527.063 L555.832,527.063" fill="#0403A7"/>
    <path d="M662.5,477.5 L670,459" fill-opacity="0" stroke="#0403A7" stroke-width="5"/>
    <path d="M670,459 L673.486,477.5" fill-opacity="0" stroke="#0403A7" stroke-width="5"/>
    <path d="M653.413,430.66 L653.365,431.384 L653.392,432.85 L653.378,434.276 L653.336,435.672 L653.245,437.03 L653.104,438.35 L652.917,439.632 L652.678,440.874 L652.39,442.076 L652.054,443.238 L651.673,444.361 L651.247,445.444 L650.776,446.488 L650.263,447.492 L649.709,448.456 L649.112,449.379 L648.476,450.263 L647.804,451.108 L647.096,451.913 L646.355,452.68 L645.575,453.404 L644.762,454.088 L643.92,454.734 L643.049,455.34 L642.141,455.902 L641.208,456.425 L640.237,456.901 L639.24,457.336 L638.2,457.718 L637.11,458.042 L635.99,458.319 L634.858,458.557 L633.726,458.763 L632.594,458.937 L631.454,459.074 L630.31,459.174 L629.163,459.236 L628.017,459.262 L626.878,459.256 L625.756,459.223 L624.642,459.156 L623.539,459.056 L622.453,458.924 L621.384,458.761 L620.34,458.57 L619.322,458.352 L618.34,458.114 L617.392,457.855 L616.48,457.576 L615.605,457.279 L614.768,456.966 L613.966,456.637 L613.196,456.293 L612.452,455.932 L611.726,455.554 L611.01,455.153 L610.295,454.724 L609.578,454.262 L608.854,453.763 L608.12,453.223 L607.378,452.639 L606.63,452.01 L605.878,451.334 L605.123,450.61 L604.783,450.266 L604.846,450.33 L603.649,449.097 L601.328,446.604 L599.006,443.985 L596.65,441.231 L594.26,438.356 L591.845,435.381 L589.404,432.321 L586.935,429.192 L584.431,426.008 L581.886,422.783 L579.306,419.532 L576.686,416.27 L574.024,413.011 L571.316,409.768 L568.558,406.554 L565.736,403.381 L562.852,400.261 L559.898,397.207 L557.617,394.951 L556.059,393.463 L554.493,392.012 L552.9,390.584 L551.279,389.178 L549.627,387.797 L547.941,386.44 L546.218,385.108 L544.453,383.802 L542.644,382.524 L540.785,381.273 L538.873,380.052 L536.903,378.862 L534.876,377.71 L532.789,376.597 L530.645,375.531 L528.45,374.52 L526.214,373.572 L523.948,372.696 L521.664,371.897 L519.375,371.182 L517.091,370.555 L514.819,370.018 L512.563,369.571 L510.32,369.207 L508.091,368.93 L505.875,368.74 L503.658,368.628 L502.501,368.601 L502.501,368.601 C500.324,368.58 500.319,369.974 502.488,371.714 C504.658,373.454 508.181,374.882 510.357,374.904 C510.357,374.904 510.357,374.904 510.357,374.904 L511.178,374.896 L512.884,374.934 L514.544,375.042 L516.146,375.206 L517.688,375.423 L519.175,375.693 L520.601,376.006 L521.974,376.358 L523.298,376.748 L524.587,377.176 L525.854,377.645 L527.111,378.157 L528.37,378.718 L529.642,379.331 L530.933,380.002 L532.247,380.734 L533.583,381.525 L534.941,382.379 L536.318,383.292 L537.711,384.264 L539.115,385.292 L540.528,386.372 L541.947,387.504 L543.369,388.683 L544.791,389.905 L546.213,391.17 L547.633,392.474 L549.032,393.799 L551.137,395.862 L553.939,398.735 L556.712,401.709 L559.455,404.767 L562.174,407.895 L564.862,411.073 L567.52,414.288 L570.152,417.523 L572.759,420.765 L575.343,423.998 L577.916,427.21 L580.478,430.387 L583.027,433.513 L585.568,436.576 L588.105,439.563 L590.654,442.464 L593.218,445.269 L595.773,447.935 L597.012,449.175 L597.012,449.175 C597.032,449.196 597.054,449.217 597.075,449.238 L597.075,449.238 L597.66,449.804 L598.796,450.846 L599.987,451.864 L601.233,452.859 L602.531,453.828 L603.881,454.769 L605.282,455.68 L606.729,456.556 L608.215,457.393 L609.731,458.187 L611.269,458.93 L612.816,459.619 L614.362,460.252 L615.898,460.827 L617.418,461.345 L618.917,461.805 L620.393,462.211 L621.844,462.563 L623.269,462.862 L624.664,463.107 L626.035,463.305 L627.383,463.457 L628.709,463.565 L630.014,463.63 L631.3,463.654 L632.566,463.637 L633.802,463.571 L635.014,463.462 L636.207,463.314 L637.38,463.126 L638.533,462.901 L639.666,462.636 L640.769,462.328 L641.839,461.974 L642.886,461.582 L643.924,461.161 L644.971,460.72 L646.017,460.256 L647.042,459.755 L648.056,459.223 L649.043,458.652 L650.012,458.048 L650.951,457.404 L651.86,456.721 L652.738,455.999 L653.589,455.241 L654.406,454.443 L655.186,453.605 L655.928,452.726 L656.631,451.808 L657.299,450.85 L657.925,449.853 L658.508,448.815 L659.047,447.736 L659.541,446.617 L659.987,445.456 L660.384,444.254 L660.732,443.011 L661.029,441.728 L661.269,440.4 L661.45,439.029 L661.571,437.615 L661.608,436.147 L661.57,434.639 L661.445,433.845 C661.445,433.845 661.445,433.845 661.445,433.845 C661.399,432.947 659.564,431.507 657.346,430.627 C655.128,429.748 653.367,429.762 653.413,430.66 L653.413,430.66" fill="#0403A7"/>
    <path d="M506.429,371.752 L521,366.5" fill-opacity="0" stroke="#0403A7" stroke-width="5"/>
    <path d="M506.429,371.752 L521,381" fill-opacity="0" stroke="#0403A7" stroke-width="5"/>
    <path d="M302.22,481.192 L302.479,481.663 L303.044,482.629 L303.646,483.584 L304.273,484.512 L304.934,485.416 L305.631,486.299 L306.365,487.159 L307.136,487.999 L307.947,488.82 L308.792,489.621 L309.681,490.405 L310.618,491.172 L311.604,491.922 L312.64,492.653 L313.727,493.364 L314.861,494.051 L316.038,494.708 L317.248,495.332 L318.482,495.915 L319.728,496.452 L320.974,496.939 L322.209,497.374 L323.426,497.757 L324.62,498.088 L326.303,498.479 L328.507,498.863 L330.685,499.1 L332.789,499.19 L334.83,499.142 L336.819,498.965 L338.758,498.663 L340.65,498.239 L342.049,497.841 L342.967,497.536 L343.862,497.205 L344.743,496.844 L345.61,496.453 L346.462,496.032 L347.298,495.581 L348.118,495.101 L348.919,494.591 L349.703,494.051 L350.468,493.481 L351.214,492.883 L351.94,492.255 L352.645,491.598 L353.327,490.911 L353.985,490.194 L354.62,489.447 L355.229,488.671 L355.812,487.864 L356.367,487.028 L356.895,486.162 L357.393,485.267 L357.862,484.341 L358.3,483.386 L358.509,482.894 L358.509,482.894 C358.51,482.892 358.511,482.889 358.512,482.887 L358.512,482.887 L358.808,482.149 L359.353,480.646 L359.835,479.123 L360.256,477.585 L360.622,476.033 L360.937,474.469 L361.207,472.893 L361.436,471.307 L361.717,468.915 L361.998,465.701 L362.207,462.468 L362.384,459.227 L362.569,455.99 L362.801,452.764 L363.117,449.559 L363.432,447.176 L363.688,445.6 L363.988,444.033 L364.337,442.479 L364.739,440.937 L365.198,439.408 L365.719,437.895 L366.306,436.398 L366.964,434.917 L367.699,433.455 L368.095,432.735 L368.091,432.742 L368.486,432.069 L369.315,430.772 L370.2,429.527 L371.142,428.329 L372.138,427.177 L373.184,426.07 L374.278,425.005 L375.417,423.982 L376.603,423.002 L377.829,422.06 L379.091,421.156 L380.388,420.287 L381.715,419.453 L383.071,418.651 L384.453,417.881 L385.863,417.145 L387.294,416.437 L388.743,415.756 L390.944,414.781 L393.915,413.564 L396.917,412.441 L399.916,411.387 L402.901,410.4 L405.848,409.465 L408.747,408.579 L410.174,408.152 L410.174,408.152 C410.968,407.888 410.415,406.935 408.938,406.023 C407.462,405.11 405.621,404.584 404.826,404.848 C404.826,404.848 404.826,404.848 404.826,404.848 L403.499,405.335 L400.749,406.319 L397.899,407.328 L394.984,408.381 L392.025,409.488 L389.057,410.669 L386.092,411.924 L383.89,412.927 L382.437,413.628 L381.001,414.358 L379.584,415.117 L378.183,415.903 L376.807,416.722 L375.46,417.574 L374.144,418.462 L372.862,419.387 L371.618,420.35 L370.413,421.352 L369.245,422.393 L368.124,423.477 L367.051,424.605 L366.03,425.779 L365.063,427 L364.153,428.27 L363.306,429.586 L362.909,430.258 L362.909,430.258 C362.907,430.26 362.906,430.262 362.905,430.265 L362.905,430.265 L362.492,431.003 L361.729,432.485 L361.045,433.985 L360.434,435.502 L359.89,437.033 L359.41,438.579 L358.989,440.137 L358.62,441.706 L358.298,443.284 L358.016,444.872 L357.666,447.265 L357.304,450.472 L357.026,453.691 L356.791,456.909 L356.559,460.119 L356.294,463.309 L355.954,466.472 L355.629,468.822 L355.368,470.373 L355.067,471.911 L354.722,473.436 L354.328,474.947 L353.88,476.441 L353.374,477.919 L352.802,479.382 L352.488,480.113 L352.491,480.106 L352.279,480.572 L351.827,481.489 L351.345,482.375 L350.835,483.233 L350.298,484.06 L349.734,484.859 L349.145,485.627 L348.531,486.366 L347.894,487.075 L347.235,487.754 L346.554,488.404 L345.853,489.025 L345.132,489.615 L344.392,490.175 L343.634,490.705 L342.859,491.206 L342.07,491.676 L341.266,492.117 L340.45,492.528 L339.623,492.91 L338.784,493.262 L337.937,493.585 L337.082,493.878 L336.23,494.138 L334.941,494.476 L333.197,494.826 L331.457,495.06 L329.738,495.182 L328.058,495.196 L326.443,495.11 L324.92,494.934 L323.456,494.667 L322.418,494.415 L321.817,494.243 L321.256,494.063 L320.732,493.876 L320.239,493.682 L319.769,493.479 L319.313,493.262 L318.859,493.027 L318.4,492.766 L317.929,492.475 L317.443,492.149 L316.941,491.784 L316.424,491.378 L315.897,490.93 L315.363,490.44 L314.826,489.908 L314.299,489.336 L313.778,488.724 L313.268,488.073 L312.771,487.385 L312.29,486.659 L311.828,485.898 L311.397,485.105 L310.986,484.263 L310.78,483.808 C310.78,483.808 310.78,483.808 310.78,483.808 C310.188,482.632 307.793,481.093 305.429,480.371 C303.065,479.648 301.629,480.016 302.22,481.192 L302.22,481.192" fill="#0403A7"/>
    <path d="M391,406.5 L407.5,406.5" fill-opacity="0" stroke="#0403A7" stroke-width="5"/>
    <path d="M407.5,406.5 L398.5,422.927" fill-opacity="0" stroke="#0403A7" stroke-width="5"/>
    <path d="M321.805,171.545 L322.717,171.713 L324.353,171.997 L325.738,172.179 L327.039,172.374 L328.275,172.595 L329.448,172.841 L330.559,173.109 L331.609,173.398 L332.605,173.709 L333.55,174.04 L334.446,174.383 L335.306,174.743 L336.138,175.123 L336.953,175.525 L337.759,175.953 L338.564,176.409 L339.375,176.895 L340.197,177.413 L341.029,177.966 L341.869,178.554 L343.179,179.523 L344.917,180.909 L346.649,182.385 L348.39,183.963 L350.133,185.625 L351.876,187.36 L353.629,189.154 L355.383,190.995 L358.028,193.821 L361.601,197.636 L364.344,200.499 L366.224,202.4 L368.14,204.271 L370.11,206.11 L372.152,207.913 L374.275,209.672 L376.498,211.384 L378.278,212.658 L379.532,213.503 L380.788,214.307 L382.086,215.094 L383.426,215.861 L384.811,216.604 L385.59,217.002 L385.59,217.002 C385.666,217.04 385.743,217.078 385.82,217.115 L385.82,217.115 L386.481,217.432 L388.298,218.221 L390.267,218.956 L392.195,219.56 L394.07,220.044 L395.891,220.422 L397.666,220.706 L399.402,220.905 L401.103,221.027 L402.776,221.077 L404.42,221.061 L406.036,220.981 L407.624,220.841 L409.179,220.642 L410.701,220.387 L412.184,220.075 L412.924,219.896 L412.924,219.896 C412.932,219.895 412.94,219.893 412.948,219.89 L412.948,219.89 L413.676,219.701 L415.128,219.285 L416.54,218.828 L417.904,218.334 L419.227,217.809 L420.509,217.251 L421.748,216.659 L422.989,216.061 L424.219,215.447 L425.41,214.802 L426.565,214.127 L427.681,213.421 L428.758,212.685 L429.797,211.919 L430.801,211.125 L431.766,210.303 L432.698,209.453 L433.596,208.578 L434.457,207.676 L435.287,206.75 L436.085,205.801 L436.845,204.825 L437.579,203.828 L438.269,202.803 L438.918,201.752 L439.492,200.659 L440.032,199.543 L440.548,198.411 L441.274,196.684 L442.167,194.329 L442.987,191.919 L443.726,189.458 L444.403,186.958 L445.014,184.418 L445.559,181.843 L446.058,179.245 L446.666,175.286 L447.453,170.011 L448.224,166.156 L448.783,163.624 L449.401,161.135 L450.058,158.683 L450.76,156.275 L451.513,153.915 L451.909,152.759 L451.909,152.759 C452.155,152.003 450.605,150.603 448.446,149.632 C446.287,148.66 444.338,148.486 444.091,149.241 L443.724,150.432 L443.03,152.841 L442.378,155.292 L441.76,157.777 L441.165,160.287 L440.557,162.807 L439.629,166.596 L438.166,171.568 L437.027,175.278 L436.304,177.761 L435.564,180.227 L434.808,182.674 L434.023,185.093 L433.188,187.471 L432.306,189.807 L431.355,192.091 L430.593,193.766 L430.065,194.862 L429.515,195.94 L428.953,197.005 L428.418,198.075 L427.872,199.133 L427.318,200.178 L426.736,201.202 L426.134,202.208 L425.507,203.192 L424.849,204.154 L424.167,205.093 L423.453,206.008 L422.707,206.898 L421.93,207.763 L421.119,208.601 L420.273,209.411 L419.391,210.193 L418.473,210.946 L417.512,211.667 L416.511,212.356 L415.437,212.995 L414.277,213.575 L413.074,214.119 L411.824,214.626 L410.525,215.094 L409.182,215.525 L407.784,215.922 L407.052,216.11 L407.076,216.104 L406.415,216.259 L405.044,216.539 L403.65,216.766 L402.239,216.94 L400.822,217.059 L399.404,217.123 L397.997,217.131 L396.611,217.085 L395.259,216.987 L393.956,216.838 L392.719,216.644 L391.566,216.412 L390.513,216.152 L389.573,215.873 L388.744,215.584 L387.843,215.206 L387.18,214.885 L387.41,214.998 L387.055,214.819 L386.199,214.362 L385.334,213.87 L384.462,213.343 L383.581,212.779 L382.729,212.206 L381.407,211.263 L379.59,209.862 L377.774,208.351 L375.963,206.744 L374.158,205.056 L372.363,203.3 L370.584,201.496 L367.911,198.698 L364.337,194.876 L361.625,191.994 L359.788,190.077 L357.919,188.176 L355.999,186.296 L354.025,184.445 L351.983,182.63 L349.855,180.855 L347.643,179.152 L345.925,177.922 L344.714,177.104 L343.464,176.303 L342.174,175.522 L340.842,174.764 L339.469,174.036 L338.064,173.342 L336.631,172.685 L335.177,172.073 L333.711,171.51 L332.242,171.001 L330.778,170.555 L329.322,170.166 L327.875,169.832 L326.442,169.561 L325.024,169.351 L323.618,169.202 L322.226,169.116 L320.867,169.109 L319.703,169.299 L319.195,169.455 C318.475,169.45 318.476,169.913 319.197,170.49 C319.918,171.067 321.086,171.539 321.805,171.545 L321.805,171.545" fill="#0403A7"/>
    <path d="M320.5,170.5 L332,167" fill-opacity="0" stroke="#0403A7" stroke-width="5"/>
    <path d="M320.5,170.5 L336,185" fill-opacity="0" stroke="#0403A7" stroke-width="5"/>
    <path d="M448,360.793 C455.603,362.089 464.581,358.32 472,360.793" fill-opacity="0" stroke="#0403A7" stroke-width="6" stroke-linecap="round" stroke-linejoin="round"/>
    <path d="M463.385,349.519 L463.777,348.489 L464.573,346.47 L465.402,344.501 L466.287,342.588 L467.216,340.724 L468.198,338.912 L469.24,337.157 L470.334,335.453 L471.481,333.8 L472.684,332.198 L473.944,330.65 L475.253,329.149 L476.586,327.683 L477.953,326.256 L479.332,324.856 L480.742,323.491 L482.195,322.169 L483.665,320.873 L485.176,319.618 L486.732,318.404 L488.332,317.23 L489.996,316.108 L491.708,315.029 L493.492,314.006 L495.325,313.027 L497.219,312.098 L499.148,311.204 L501.103,310.34 L503.081,309.503 L505.082,308.694 L507.106,307.912 L509.15,307.156 L511.21,306.421 L513.286,305.709 L516.431,304.68 L520.67,303.377 L524.948,302.146 L529.244,300.968 L533.556,299.841 L537.872,298.755 L542.179,297.7 L546.465,296.668 L550.707,295.641 L554.902,294.617 L559.038,293.586 L563.099,292.536 L567.07,291.457 L569.987,290.624 L571.899,290.054 L573.778,289.472 L575.627,288.877 L576.542,288.573 L576.542,288.573 C577.3,288.323 576.776,287.417 575.372,286.548 C573.968,285.679 572.216,285.178 571.458,285.427 L570.554,285.723 L568.715,286.307 L566.845,286.878 L564.95,287.437 L562.052,288.259 L558.095,289.326 L554.051,290.371 L549.931,291.402 L545.745,292.429 L541.506,293.459 L537.237,294.509 L532.941,295.584 L528.631,296.691 L524.321,297.841 L520.023,299.044 L515.762,300.317 L511.543,301.66 L508.412,302.721 L506.342,303.455 L504.291,304.215 L502.262,305.001 L500.254,305.812 L498.267,306.651 L496.304,307.518 L494.369,308.416 L492.462,309.346 L490.577,310.303 L488.692,311.276 L486.82,312.273 L484.943,313.285 L483.088,314.327 L481.242,315.392 L479.43,316.496 L477.651,317.637 L475.914,318.822 L474.246,320.065 L472.623,321.353 L471.063,322.695 L469.586,324.103 L468.174,325.567 L466.84,327.093 L465.562,328.671 L464.336,330.298 L463.165,331.978 L462.056,333.713 L461.013,335.507 L460.032,337.356 L459.122,339.267 L458.296,341.245 L457.545,343.287 L456.894,345.399 L456.615,346.481 C456.407,347.137 457.753,348.349 459.622,349.188 C461.492,350.027 463.176,350.176 463.385,349.519 L463.385,349.519" fill="#0403A7"/>
    <path d="M558.5,287 L574,287" fill-opacity="0" stroke="#0403A7" stroke-width="5"/>
    <path d="M574,287 L558.5,299.537" fill-opacity="0" stroke="#0403A7" stroke-width="5"/>
  </g>
</svg>
